<svg xmlns="http://www.w3.org/2000/svg" viewBox="-0.9449847412109307 127 576.8899841308594 286.1125030517578"> <svg xmlns="http://www.w3.org/2000/svg" xmlns:xlink="http://www.w3.org/1999/xlink" version="1.0" id="Layer_1" x="143.762" y="197" viewBox="10.860000610351562 128.45999145507812 478.280029296875 243.08999633789062" xml:space="preserve" height="146.1125030517578" width="287.5" preserveAspectRatio="xMinYMin" enable-background="new 0 0 500 500" style="overflow: visible;"><path class="st0" d="M13.31,213.71v3.84h-2.45v-2.75C11.63,214.47,12.44,214.11,13.31,213.71z" style="fill: #e6d98f;"></path><path class="st0" d="M19.6,210.68v6.88h-2.45v-5.65C17.93,211.51,18.75,211.1,19.6,210.68z" style="fill: #e6d98f;"></path><path class="st0" d="M25.89,207.32v10.24h-2.45v-8.9C24.24,208.23,25.05,207.78,25.89,207.32z" style="fill: #e6d98f;"></path><path class="st0" d="M32.18,203.73v13.83h-2.45v-12.41c0.4-0.24,0.81-0.47,1.22-0.71C31.37,204.2,31.78,203.97,32.18,203.73z" style="fill: #e6d98f;"></path><path class="st0" d="M38.48,200.29v17.27h-2.45v-15.98C36.86,201.13,37.67,200.7,38.48,200.29z" style="fill: #e6d98f;"></path><path class="st0" d="M44.77,197.34v20.22h-2.45v-19.14C43.14,198.04,43.96,197.68,44.77,197.34z" style="fill: #e6d98f;"></path><path class="st0" d="M51.06,195.06v22.49h-2.45v-21.69C49.43,195.57,50.25,195.31,51.06,195.06z" style="fill: #e6d98f;"></path><path class="st0" d="M57.36,193.6v23.95h-2.45v-23.49C55.73,193.88,56.54,193.73,57.36,193.6z" style="fill: #e6d98f;"></path><path class="st0" d="M63.65,193.05v24.51H61.2v-24.4C62.01,193.09,62.83,193.06,63.65,193.05z" style="fill: #e6d98f;"></path><path class="st0" d="M69.95,193.43v24.12H67.5v-24.38C68.31,193.23,69.12,193.32,69.95,193.43z" style="fill: #e6d98f;"></path><path class="st0" d="M76.24,194.72v22.83h-2.45v-23.44C74.6,194.29,75.41,194.49,76.24,194.72z" style="fill: #e6d98f;"></path><path class="st0" d="M82.54,196.86v20.7h-2.45v-21.63C80.9,196.22,81.71,196.53,82.54,196.86z" style="fill: #e6d98f;"></path><path class="st0" d="M88.82,199.76v17.8h-2.45v-19.01C87.19,198.92,88,199.32,88.82,199.76z" style="fill: #e6d98f;"></path><path class="st0" d="M95.11,203.32v14.24h-2.45v-15.7C93.47,202.32,94.29,202.81,95.11,203.32z" style="fill: #e6d98f;"></path><path class="st0" d="M101.41,206.98v10.58h-2.45v-11.91C99.78,206.1,100.6,206.55,101.41,206.98z" style="fill: #e6d98f;"></path><path class="st0" d="M107.7,209.93v7.63h-2.45v-8.7C106.07,209.23,106.89,209.59,107.7,209.93z" style="fill: #e6d98f;"></path><path class="st0" d="M114,212.33v5.23h-2.45v-6.09C112.38,211.76,113.18,212.05,114,212.33z" style="fill: #e6d98f;"></path><path class="st0" d="M120.29,214.25v3.3h-2.45v-4.01C118.67,213.8,119.48,214.03,120.29,214.25z" style="fill: #e6d98f;"></path><path class="st0" d="M382.16,214.58v2.98h-2.45v-2.19C380.52,215.13,381.34,214.86,382.16,214.58z" style="fill: #e6d98f;"></path><path class="st0" d="M388.46,211.91v5.65h-2.45v-4.49C386.83,212.71,387.65,212.33,388.46,211.91z" style="fill: #e6d98f;"></path><path class="st0" d="M394.75,207.94v9.62h-2.45v-7.87C393.14,209.14,393.95,208.56,394.75,207.94z" style="fill: #e6d98f;"></path><path class="st0" d="M401.03,201.42v16.14h-2.45v-13.13C399.46,203.48,400.28,202.49,401.03,201.42z" style="fill: #e6d98f;"></path><path class="st0" d="M407.33,189.77v27.79h-2.45V194.6C405.73,192.94,406.55,191.34,407.33,189.77z" style="fill: #e6d98f;"></path><path class="st0" d="M413.62,177.32v40.23h-2.45v-35.48C412.02,180.42,412.82,178.84,413.62,177.32z" style="fill: #e6d98f;"></path><path class="st0" d="M419.92,166.87v50.68h-2.45v-47.03C418.28,169.22,419.1,168.01,419.92,166.87z" style="fill: #e6d98f;"></path><path class="st0" d="M426.21,160.38v57.18h-2.45v-55.14C424.55,161.66,425.36,160.98,426.21,160.38z" style="fill: #e6d98f;"></path><path class="st0" d="M432.51,157.43v60.12h-2.45v-59.32C430.84,157.91,431.66,157.64,432.51,157.43z" style="fill: #e6d98f;"></path><path class="st0" d="M438.8,156.9v60.65h-2.45v-60.68c0.4-0.02,0.81-0.03,1.22-0.03C437.99,156.85,438.4,156.86,438.8,156.9z" style="fill: #e6d98f;"></path><path class="st0" d="M445.09,159.21v58.35h-2.45v-59.67C443.48,158.25,444.3,158.69,445.09,159.21z" style="fill: #e6d98f;"></path><path class="st0" d="M451.39,165.36v52.19h-2.45V162.5C449.77,163.37,450.59,164.33,451.39,165.36z" style="fill: #e6d98f;"></path><path class="st0" d="M457.68,175.12v42.44h-2.45v-46.58C456.04,172.3,456.86,173.68,457.68,175.12z" style="fill: #e6d98f;"></path><path class="st0" d="M463.97,186.54v31.02h-2.45v-35.48C462.33,183.55,463.14,185.04,463.97,186.54z" style="fill: #e6d98f;"></path><path class="st0" d="M470.26,197.08v20.48h-2.45v-24.37C468.61,194.5,469.42,195.81,470.26,197.08z" style="fill: #e6d98f;"></path><path class="st0" d="M476.56,205.45v12.11h-2.45v-15.08C474.9,203.5,475.72,204.5,476.56,205.45z" style="fill: #e6d98f;"></path><path class="st0" d="M482.85,211.49v6.06h-2.45v-8.16C481.19,210.13,482.01,210.83,482.85,211.49z" style="fill: #e6d98f;"></path><path class="st0" d="M489.14,215.5v2.06h-2.45v-3.4C487.48,214.64,488.3,215.08,489.14,215.5z" style="fill: #e6d98f;"></path><path class="st0" d="M250.76,371.55c-54.24,0-102.18-36.25-116.95-88.28h81.08c9.24,9.97,22.3,15.68,35.87,15.68   c13.57,0,26.62-5.71,35.87-15.68h9.82c-9.72,12.78-24.22,20.77-40,22.01l-0.83,0.07l0.41,4.09l0.82-0.1   c16.96-2.01,32.69-11.74,42.18-26.07h5.75c-7.55,11.72-18.75,20.69-31.69,25.34c-5.2,1.88-10.62,3.06-16.12,3.49l-0.83,0.07   l0.4,4.08l0.82-0.09c20.38-2.2,39.38-14.78,49.69-32.89h5.69c-8.19,14.63-21.73,26.17-37.34,31.77   c-5.75,2.08-11.78,3.38-17.93,3.88l-0.83,0.07l0.08,0.83c0,0,0.21,2.19,0.23,2.39l0.05,0.85l0.85-0.07   c23.86-2.47,46.15-18.03,56.94-39.7h5.67c-8.75,17.69-24.27,31.57-42.75,38.2c-6.37,2.29-13,3.73-19.72,4.26l-0.83,0.07l0.38,4.07   l0.82-0.08c27.64-2.78,52.69-21.01,63.98-46.52h45.34C352.94,335.31,305,371.55,250.76,371.55z M352.8,294.89   c-12.31,27.3-35.45,48.71-63.49,58.74c-9.26,3.33-18.92,5.41-28.7,6.17l-0.82,0.06l0.36,4.07l0.82-0.08   c10.08-0.98,20.02-3.33,29.55-6.98c28.54-10.87,51.79-33.22,63.78-61.33L352.8,294.89z M222.07,357.72   c7.19,2.74,14.74,4.76,22.46,6.01l0.85,0.14l0.44-4.14l-0.86-0.05c-7.56-0.41-15.09-1.59-22.39-3.51L222.07,357.72z M346.55,292.13   c-11.57,25.59-33.28,45.66-59.55,55.07c-8.64,3.12-17.69,5.07-26.91,5.8l-0.82,0.06l0.36,4.07l0.82-0.08   c9.52-0.95,18.85-3.17,27.75-6.6c26.79-10.25,48.6-31.26,59.84-57.66L346.55,292.13z M224.21,351.23   c6.77,2.6,13.88,4.52,21.14,5.71l0.85,0.14l0.45-4.15l-0.86-0.04c-7.1-0.35-14.2-1.43-21.08-3.21L224.21,351.23z M226.36,344.74   c6.5,2.52,13.2,4.34,19.9,5.42l0.9,0.14l0.21-4.21h-0.86c-0.31,0-0.74-0.02-1.13-0.05c-6.27-0.36-12.5-1.32-18.52-2.86   L226.36,344.74z M340.29,289.36c-10.8,23.87-31.07,42.61-55.62,51.4c-8.15,2.93-16.59,4.74-25.1,5.4l-0.82,0.06l0.35,4.07   l0.82-0.08c35.76-3.34,67.89-26.98,81.86-60.21L340.29,289.36z M228.5,338.25c6.07,2.37,12.32,4.1,18.57,5.13l0.89,0.15l0.25-4.18   l-0.84-0.02c-0.33-0.01-0.71-0.02-1.09-0.05c-5.87-0.3-11.68-1.17-17.29-2.57L228.5,338.25z M334.03,286.59   c-10.06,22.19-28.89,39.59-51.67,47.75c-7.51,2.71-15.35,4.4-23.31,5.02l-0.82,0.06l0.37,4.07l0.82-0.08   c33.27-3.15,63.15-25.2,76.11-56.17L334.03,286.59z M230.64,331.76c5.59,2.22,11.39,3.84,17.24,4.83l0.89,0.15l0.28-4.19   l-0.85-0.02c-1.17-0.03-2.56-0.11-4.25-0.24c-4.35-0.37-8.66-1.07-12.82-2.08L230.64,331.76z M327.79,283.83   c-9.31,20.46-26.71,36.53-47.75,44.07c-6.9,2.5-14.14,4.06-21.52,4.64l-0.83,0.06l0.38,4.07l0.81-0.08   c30.78-2.98,58.41-23.44,70.39-52.11L327.79,283.83z M232.78,325.27c5.19,2.08,10.55,3.61,15.92,4.54l0.89,0.15l0.31-4.19   l-0.86-0.02c-5.21-0.11-10.51-0.8-15.76-2.03L232.78,325.27z M234.93,318.77c4.71,1.94,9.62,3.37,14.59,4.25l0.89,0.16l0.32-4.2   l-0.87-0.01c-4.84-0.06-9.7-0.65-14.44-1.74L234.93,318.77z M237.06,312.29c4.28,1.79,8.74,3.12,13.28,3.96l0.89,0.16l0.34-4.22   l-0.88,0c-4.34-0.01-8.76-0.5-13.13-1.45L237.06,312.29z M239.2,305.79c3.83,1.64,7.86,2.88,11.96,3.67l0.89,0.17l0.34-4.24   l-1.53,0.01c-3.7,0-7.46-0.39-11.18-1.16L239.2,305.79z M286.64,216.74c-9.25-9.97-22.3-15.69-35.88-15.69s-26.63,5.71-35.88,15.69   h-9.36c9.72-12.38,24.02-20.14,39.5-21.35l0.83-0.07l-0.41-4.09l-0.82,0.1c-16.9,2-32.09,11.25-41.74,25.41h-5.76   c7.56-11.41,18.6-20.14,31.25-24.69c5.18-1.88,10.61-3.05,16.13-3.49l0.83-0.07l-0.08-0.83c0,0-0.22-2.19-0.23-2.4l-0.05-0.85   l-0.85,0.08c-20.08,2.17-38.94,14.5-49.33,32.24h-5.7c8.22-14.3,21.62-25.6,36.97-31.11c5.76-2.08,11.79-3.38,17.92-3.87l0.82-0.07   l-0.38-4.08l-0.82,0.09c-23.56,2.45-45.73,17.75-56.62,39.05h-5.67c8.83-17.38,24.23-31.02,42.42-37.54   c6.37-2.3,13-3.74,19.72-4.26l0.83-0.06l-0.38-4.08l-0.82,0.08c-27.33,2.75-52.26,20.73-63.68,45.87h-5.69   c9.32-20.42,26.7-36.45,47.71-43.98c6.91-2.5,14.14-4.05,21.51-4.63l0.83-0.06l-0.38-4.08l-0.81,0.08   c-30.78,2.98-58.41,23.44-70.39,52.11l1.28,0.56h-39.65c14.77-52.04,62.7-88.29,116.95-88.29s102.18,36.25,116.95,88.29H286.64z    M242.06,157.25c-33.28,3.16-63.16,25.21-76.12,56.17l1.5,0.65c10.06-22.18,28.89-39.59,51.67-47.74   c7.51-2.72,15.35-4.4,23.32-5.02l0.83-0.06l-0.08-0.82c0,0-0.21-2.2-0.22-2.4l-0.05-0.84L242.06,157.25z M241.55,150.44   c-35.76,3.34-67.89,26.98-81.86,60.21l1.5,0.65c10.81-23.88,31.08-42.61,55.62-51.4c8.15-2.93,16.59-4.75,25.1-5.4l0.82-0.06   l-0.35-4.08L241.55,150.44z M241.02,143.62c-9.51,0.95-18.85,3.17-27.75,6.6c-26.78,10.24-48.59,31.26-59.84,57.66l1.49,0.66   c11.57-25.59,33.28-45.67,59.56-55.07c8.64-3.12,17.69-5.07,26.9-5.79l0.82-0.06l-0.35-4.08L241.02,143.62z M240.51,136.81   c-10.12,0.99-20.06,3.34-29.55,6.98c-28.54,10.86-51.78,33.21-63.78,61.32l1.49,0.66c12.31-27.3,35.45-48.71,63.49-58.73   c9.29-3.34,18.95-5.42,28.7-6.17l0.82-0.06l-0.35-4.08L240.51,136.81z M250.5,195.26c3.76,0,7.55,0.39,11.27,1.16l0.49-1.55   c-3.83-1.64-7.86-2.88-11.96-3.67l-0.89-0.17l-0.34,4.24L250.5,195.26z M249.9,188.47l0.88,0c4.34,0.01,8.76,0.5,13.13,1.45   l0.49-1.55c-4.28-1.79-8.74-3.12-13.28-3.96l-0.89-0.16L249.9,188.47z M250.73,181.68l0.87,0.01c4.84,0.06,9.7,0.65,14.44,1.74   l0.49-1.55c-4.71-1.93-9.62-3.36-14.59-4.25l-0.89-0.16L250.73,181.68z M251.57,174.89l0.86,0.02c5.21,0.11,10.51,0.8,15.76,2.03   l0.49-1.55c-5.19-2.08-10.55-3.61-15.92-4.54l-0.89-0.15L251.57,174.89z M252.42,168.12l0.86,0.02c1.16,0.02,2.55,0.1,4.24,0.23   c4.3,0.36,8.61,1.06,12.82,2.08l0.49-1.55c-5.59-2.22-11.39-3.84-17.24-4.83l-0.89-0.15L252.42,168.12z M253.26,161.35h0.86   c0.31,0,0.69,0.02,1.06,0.04c5.85,0.3,11.66,1.17,17.29,2.58l0.5-1.55c-6.06-2.38-12.3-4.11-18.57-5.14l-0.9-0.15L253.26,161.35z    M254.1,154.57h0.86c0.19,0,0.44,0.01,0.7,0.03l0.45,0.02c6.27,0.36,12.5,1.32,18.51,2.86l0.5-1.55   c-6.54-2.53-13.23-4.36-19.91-5.43l-0.9-0.14L254.1,154.57z M254.82,147.72l0.86,0.04c7.15,0.36,14.25,1.44,21.08,3.22l0.5-1.55   c-6.76-2.6-13.87-4.53-21.14-5.72l-0.85-0.14L254.82,147.72z M255.64,140.94l0.86,0.05c7.57,0.41,15.1,1.59,22.39,3.51l0.5-1.55   c-7.17-2.74-14.73-4.76-22.45-6.01l-0.85-0.14L255.64,140.94z" style="fill: #e6d98f;"></path><path class="st0" d="M250.76,286.71c-5.38,0-10.68-1.18-15.51-3.44h31.01c-1.72,0.81-3.51,1.48-5.34,2.01   c-1.91,0.56-3.89,0.96-5.9,1.19C253.64,286.63,252.21,286.71,250.76,286.71z M235.23,216.74c1.91-0.9,3.89-1.62,5.92-2.17   c2.71-0.74,5.5-1.16,8.3-1.24c0.45-0.02,0.87-0.03,1.3-0.03c5.38,0,10.69,1.19,15.53,3.45H235.23z" style="fill: #e6d98f;"></path></svg> <svg y="256.83" viewBox="1.5399999618530273 -0.12999999523162842 436.8899841308594 24.392250061035156" x="69.05501525878907" height="24.392250061035156" width="436.8899841308594" style="overflow: visible;"><g fill="#fbf7e0" style=""><path d="M1.54 4.29L1.54 0.70L17.12 0.70L17.12 4.29L11.10 4.29L11.10 24L7.39 24L7.39 4.29L1.54 4.29ZM29.54 24L29.54 0.70L33.28 0.70L33.28 24L29.54 24ZM50.98 24L47.36 24L47.36-0.13L47.39-0.13L59.94 17.63L58.34 17.28L70.82-0.13L70.88-0.13L70.88 24L67.17 24L67.17 8.29L67.42 10.18L58.98 22.11L58.91 22.11L50.34 10.18L50.98 8.45L50.98 24ZM84.96 24L84.96 0.70L100.42 0.70L100.42 4.29L88.70 4.29L88.70 10.50L99.14 10.50L99.14 14.08L88.70 14.08L88.70 20.42L100.86 20.42L100.86 24L84.96 24ZM113.70 24L113.70 0.70L117.44 0.70L117.44 20.42L128.90 20.42L128.90 24L113.70 24ZM141.54 24L141.54 0.70L156.99 0.70L156.99 4.29L145.28 4.29L145.28 10.50L155.71 10.50L155.71 14.08L145.28 14.08L145.28 20.42L157.44 20.42L157.44 24L141.54 24ZM183.90 2.59L182.50 5.44Q181.25 4.80 179.84 4.34Q178.43 3.87 177.15 3.87L177.15 3.87Q175.42 3.87 174.42 4.64Q173.41 5.41 173.41 6.75L173.41 6.75Q173.41 7.71 174.10 8.43Q174.78 9.15 175.89 9.68Q176.99 10.21 178.21 10.69L178.21 10.69Q179.26 11.07 180.30 11.60Q181.34 12.13 182.18 12.90Q183.01 13.66 183.49 14.80Q183.97 15.94 183.97 17.60L183.97 17.60Q183.97 19.42 183.06 20.94Q182.14 22.46 180.42 23.36Q178.69 24.26 176.22 24.26L176.22 24.26Q174.75 24.26 173.36 23.94Q171.97 23.62 170.72 23.06Q169.47 22.50 168.42 21.79L168.42 21.79L170.08 18.88Q170.85 19.46 171.84 19.94Q172.83 20.42 173.89 20.70Q174.94 20.99 175.87 20.99L175.87 20.99Q176.86 20.99 177.84 20.66Q178.82 20.32 179.47 19.58Q180.13 18.85 180.13 17.63L180.13 17.63Q180.13 16.64 179.57 15.94Q179.01 15.23 178.08 14.70Q177.15 14.18 176.06 13.76L176.06 13.76Q174.98 13.34 173.86 12.83Q172.74 12.32 171.76 11.57Q170.78 10.82 170.18 9.73Q169.57 8.64 169.57 7.04L169.57 7.04Q169.57 5.12 170.46 3.71Q171.36 2.30 172.94 1.47Q174.53 0.64 176.61 0.58L176.61 0.58Q179.07 0.58 180.82 1.17Q182.56 1.76 183.90 2.59L183.90 2.59ZM210.21 2.59L208.80 5.44Q207.55 4.80 206.14 4.34Q204.74 3.87 203.46 3.87L203.46 3.87Q201.73 3.87 200.72 4.64Q199.71 5.41 199.71 6.75L199.71 6.75Q199.71 7.71 200.40 8.43Q201.09 9.15 202.19 9.68Q203.30 10.21 204.51 10.69L204.51 10.69Q205.57 11.07 206.61 11.60Q207.65 12.13 208.48 12.90Q209.31 13.66 209.79 14.80Q210.27 15.94 210.27 17.60L210.27 17.60Q210.27 19.42 209.36 20.94Q208.45 22.46 206.72 23.36Q204.99 24.26 202.53 24.26L202.53 24.26Q201.06 24.26 199.66 23.94Q198.27 23.62 197.02 23.06Q195.78 22.50 194.72 21.79L194.72 21.79L196.38 18.88Q197.15 19.46 198.14 19.94Q199.14 20.42 200.19 20.70Q201.25 20.99 202.18 20.99L202.18 20.99Q203.17 20.99 204.14 20.66Q205.12 20.32 205.78 19.58Q206.43 18.85 206.43 17.63L206.43 17.63Q206.43 16.64 205.87 15.94Q205.31 15.23 204.38 14.70Q203.46 14.18 202.37 13.76L202.37 13.76Q201.28 13.34 200.16 12.83Q199.04 12.32 198.06 11.57Q197.09 10.82 196.48 9.73Q195.87 8.64 195.87 7.04L195.87 7.04Q195.87 5.12 196.77 3.71Q197.66 2.30 199.25 1.47Q200.83 0.64 202.91 0.58L202.91 0.58Q205.38 0.58 207.12 1.17Q208.86 1.76 210.21 2.59L210.21 2.59ZM240.80 0.70L247.36 0.70Q249.28 0.70 250.88 1.20Q252.48 1.70 253.60 2.66Q254.72 3.62 255.34 5.01Q255.97 6.40 255.97 8.19L255.97 8.19Q255.97 9.57 255.55 10.94Q255.14 12.32 254.19 13.42Q253.25 14.53 251.71 15.22Q250.18 15.90 247.90 15.90L247.90 15.90L244.54 15.90L244.54 24L240.80 24L240.80 0.70ZM244.54 12.32L247.87 12.32Q249.12 12.32 249.95 11.92Q250.78 11.52 251.25 10.91Q251.71 10.30 251.92 9.62Q252.13 8.93 252.13 8.32L252.13 8.32Q252.13 7.74 251.94 7.06Q251.74 6.37 251.28 5.74Q250.82 5.12 250.02 4.70Q249.22 4.29 248.00 4.29L248.00 4.29L244.54 4.29L244.54 12.32ZM247.46 14.62L251.90 14.53L257.86 24L253.54 24L247.46 14.62ZM269.92 24L269.92 0.70L285.38 0.70L285.38 4.29L273.66 4.29L273.66 10.50L284.10 10.50L284.10 14.08L273.66 14.08L273.66 20.42L285.82 20.42L285.82 24L269.92 24ZM314.37 18.85L315.94 22.18Q315.42 22.53 314.42 23.04Q313.41 23.55 312.02 23.92Q310.62 24.29 308.93 24.26L308.93 24.26Q306.21 24.22 304.03 23.28Q301.86 22.34 300.35 20.72Q298.85 19.10 298.03 17.01Q297.22 14.91 297.22 12.54L297.22 12.54Q297.22 9.89 298.05 7.68Q298.88 5.47 300.42 3.86Q301.95 2.24 304.06 1.34Q306.18 0.45 308.67 0.45L308.67 0.45Q310.88 0.45 312.62 1.04Q314.37 1.63 315.55 2.37L315.55 2.37L314.08 5.86Q313.18 5.25 311.84 4.64Q310.50 4.03 308.80 4.03L308.80 4.03Q307.26 4.03 305.86 4.66Q304.45 5.28 303.39 6.42Q302.34 7.55 301.71 9.06Q301.09 10.56 301.09 12.32L301.09 12.32Q301.09 14.14 301.65 15.68Q302.21 17.22 303.25 18.32Q304.29 19.42 305.74 20.05Q307.20 20.67 309.02 20.67L309.02 20.67Q310.82 20.67 312.18 20.11Q313.54 19.55 314.37 18.85L314.37 18.85ZM327.14 12.38L327.14 12.38Q327.14 9.95 328.06 7.81Q328.99 5.66 330.62 4Q332.26 2.34 334.42 1.39Q336.58 0.45 339.04 0.45L339.04 0.45Q341.47 0.45 343.63 1.39Q345.79 2.34 347.44 4Q349.09 5.66 350.03 7.81Q350.98 9.95 350.98 12.38L350.98 12.38Q350.98 14.85 350.03 17.01Q349.09 19.17 347.44 20.80Q345.79 22.43 343.63 23.34Q341.47 24.26 339.04 24.26L339.04 24.26Q336.54 24.26 334.40 23.34Q332.26 22.43 330.62 20.82Q328.99 19.20 328.06 17.04Q327.14 14.88 327.14 12.38ZM330.98 12.38L330.98 12.38Q330.98 14.11 331.60 15.62Q332.22 17.12 333.34 18.26Q334.46 19.39 335.94 20.03Q337.41 20.67 339.14 20.67L339.14 20.67Q340.80 20.67 342.26 20.03Q343.71 19.39 344.80 18.26Q345.89 17.12 346.51 15.62Q347.14 14.11 347.14 12.38L347.14 12.38Q347.14 10.62 346.50 9.12Q345.86 7.62 344.77 6.46Q343.68 5.31 342.21 4.67Q340.74 4.03 339.04 4.03L339.04 4.03Q337.34 4.03 335.87 4.67Q334.40 5.31 333.30 6.46Q332.19 7.62 331.58 9.14Q330.98 10.66 330.98 12.38ZM363.62 0.70L370.18 0.70Q372.10 0.70 373.70 1.20Q375.30 1.70 376.42 2.66Q377.54 3.62 378.16 5.01Q378.78 6.40 378.78 8.19L378.78 8.19Q378.78 9.57 378.37 10.94Q377.95 12.32 377.01 13.42Q376.06 14.53 374.53 15.22Q372.99 15.90 370.72 15.90L370.72 15.90L367.36 15.90L367.36 24L363.62 24L363.62 0.70ZM367.36 12.32L370.69 12.32Q371.94 12.32 372.77 11.92Q373.60 11.52 374.06 10.91Q374.53 10.30 374.74 9.62Q374.94 8.93 374.94 8.32L374.94 8.32Q374.94 7.74 374.75 7.06Q374.56 6.37 374.10 5.74Q373.63 5.12 372.83 4.70Q372.03 4.29 370.82 4.29L370.82 4.29L367.36 4.29L367.36 12.32ZM370.27 14.62L374.72 14.53L380.67 24L376.35 24L370.27 14.62ZM400.48 24L392.74 24L392.74 0.70L399.36 0.70Q402.82 0.70 405.26 1.76Q407.71 2.82 409.22 4.54Q410.72 6.27 411.41 8.40Q412.10 10.53 412.10 12.67L412.10 12.67Q412.10 15.30 411.17 17.38Q410.24 19.46 408.62 20.94Q407.01 22.43 404.91 23.22Q402.82 24 400.48 24L400.48 24ZM396.48 4.26L396.48 20.42L399.81 20.42Q401.66 20.42 403.20 19.89Q404.74 19.36 405.87 18.35Q407.01 17.34 407.63 15.84Q408.26 14.34 408.26 12.42L408.26 12.42Q408.26 10.24 407.54 8.69Q406.82 7.14 405.65 6.16Q404.48 5.18 403.10 4.72Q401.73 4.26 400.38 4.26L400.38 4.26L396.48 4.26ZM438.37 2.59L436.96 5.44Q435.71 4.80 434.30 4.34Q432.90 3.87 431.62 3.87L431.62 3.87Q429.89 3.87 428.88 4.64Q427.87 5.41 427.87 6.75L427.87 6.75Q427.87 7.71 428.56 8.43Q429.25 9.15 430.35 9.68Q431.46 10.21 432.67 10.69L432.67 10.69Q433.73 11.07 434.77 11.60Q435.81 12.13 436.64 12.90Q437.47 13.66 437.95 14.80Q438.43 15.94 438.43 17.60L438.43 17.60Q438.43 19.42 437.52 20.94Q436.61 22.46 434.88 23.36Q433.15 24.26 430.69 24.26L430.69 24.26Q429.22 24.26 427.82 23.94Q426.43 23.62 425.18 23.06Q423.94 22.50 422.88 21.79L422.88 21.79L424.54 18.88Q425.31 19.46 426.30 19.94Q427.30 20.42 428.35 20.70Q429.41 20.99 430.34 20.99L430.34 20.99Q431.33 20.99 432.30 20.66Q433.28 20.32 433.94 19.58Q434.59 18.85 434.59 17.63L434.59 17.63Q434.59 16.64 434.03 15.94Q433.47 15.23 432.54 14.70Q431.62 14.18 430.53 13.76L430.53 13.76Q429.44 13.34 428.32 12.83Q427.20 12.32 426.22 11.57Q425.25 10.82 424.64 9.73Q424.03 8.64 424.03 7.04L424.03 7.04Q424.03 5.12 424.93 3.71Q425.82 2.30 427.41 1.47Q428.99 0.64 431.07 0.58L431.07 0.58Q433.54 0.58 435.28 1.17Q437.02 1.76 438.37 2.59L438.37 2.59Z" transform="translate(0, 0)"></path></g></svg></svg>